<svg width="15" height="14" viewBox="0 0 15 14" fill="none" xmlns="http://www.w3.org/2000/svg">
<path fill-rule="evenodd" clip-rule="evenodd" d="M11.7168 3.49998C11.7168 3.84998 11.4841 4.08331 11.1352 4.08331H9.39046V5.24998H11.1352C11.3097 5.24998 11.4841 5.24998 11.6005 5.42498C11.7168 5.59998 11.7749 5.77498 11.7168 5.94998L11.1352 8.28331C11.077 8.57498 10.8444 8.74998 10.5536 8.74998H9.39046V12.8333C9.39046 13.1833 9.15782 13.4166 8.80888 13.4166H6.48256C6.13362 13.4166 5.90098 13.1833 5.90098 12.8333V8.74998H4.73783C4.38888 8.74998 4.15625 8.51665 4.15625 8.16665V5.83331C4.15625 5.48331 4.38888 5.24998 4.73783 5.24998H5.90098V4.08331C5.90098 2.15831 7.47125 0.583313 9.39046 0.583313H11.1352C11.4841 0.583313 11.7168 0.816646 11.7168 1.16665V3.49998ZM10.3791 6.41665H8.80888C8.45993 6.41665 8.2273 6.18331 8.2273 5.83331V4.08331C8.2273 3.44165 8.75072 2.91665 9.39045 2.91665H10.5536V1.74998H9.39045C8.11098 1.74998 7.06414 2.79998 7.06414 4.08331V5.83331C7.06414 6.18331 6.83151 6.41665 6.48256 6.41665H5.31941V7.58331H6.48256C6.83151 7.58331 7.06414 7.81665 7.06414 8.16665V12.25H8.2273V8.16665C8.2273 7.81665 8.45993 7.58331 8.80888 7.58331H10.0883L10.3791 6.41665Z" fill="black"/>
<mask id="mask0_6_325" style="mask-type:luminance" maskUnits="userSpaceOnUse" x="4" y="0" width="8" height="14">
<path fill-rule="evenodd" clip-rule="evenodd" d="M11.7168 3.49998C11.7168 3.84998 11.4841 4.08331 11.1352 4.08331H9.39046V5.24998H11.1352C11.3097 5.24998 11.4841 5.24998 11.6005 5.42498C11.7168 5.59998 11.7749 5.77498 11.7168 5.94998L11.1352 8.28331C11.077 8.57498 10.8444 8.74998 10.5536 8.74998H9.39046V12.8333C9.39046 13.1833 9.15782 13.4166 8.80888 13.4166H6.48256C6.13362 13.4166 5.90098 13.1833 5.90098 12.8333V8.74998H4.73783C4.38888 8.74998 4.15625 8.51665 4.15625 8.16665V5.83331C4.15625 5.48331 4.38888 5.24998 4.73783 5.24998H5.90098V4.08331C5.90098 2.15831 7.47125 0.583313 9.39046 0.583313H11.1352C11.4841 0.583313 11.7168 0.816646 11.7168 1.16665V3.49998ZM10.3791 6.41665H8.80888C8.45993 6.41665 8.2273 6.18331 8.2273 5.83331V4.08331C8.2273 3.44165 8.75072 2.91665 9.39045 2.91665H10.5536V1.74998H9.39045C8.11098 1.74998 7.06414 2.79998 7.06414 4.08331V5.83331C7.06414 6.18331 6.83151 6.41665 6.48256 6.41665H5.31941V7.58331H6.48256C6.83151 7.58331 7.06414 7.81665 7.06414 8.16665V12.25H8.2273V8.16665C8.2273 7.81665 8.45993 7.58331 8.80888 7.58331H10.0883L10.3791 6.41665Z" fill="white"/>
</mask>
<g mask="url(#mask0_6_325)">
<rect x="0.65625" width="14" height="14" fill="white"/>
</g>
</svg>
