<svg width="15" height="14" viewBox="0 0 15 14" fill="none" xmlns="http://www.w3.org/2000/svg">
<path d="M10.62 10.1024C10.7391 10.4515 10.7986 10.8587 10.7986 11.2077V13.4183C10.7986 13.7673 10.5605 14 10.2032 14C9.84593 14 9.60775 13.7673 9.60775 13.4183V11.1495C9.66729 10.6842 9.48866 10.3351 9.19094 10.0443C9.01231 9.86974 8.95276 9.63705 9.07185 9.46253C9.13139 9.22984 9.36957 9.1135 9.5482 9.05532C11.275 8.88081 12.8827 8.29908 12.8827 5.56498C12.8827 4.92508 12.6445 4.28518 12.1682 3.76163C11.9895 3.58711 11.9895 3.35442 12.0491 3.17991C12.2277 2.71453 12.2277 2.24915 12.1086 1.78377C11.8109 1.84194 11.3345 2.01646 10.5605 2.54001C10.4414 2.65636 10.2627 2.65636 10.0841 2.59818C8.83367 2.24915 7.46415 2.24915 6.21373 2.59818C6.03509 2.65636 5.85646 2.65636 5.67783 2.54001C4.9633 2.01646 4.4274 1.84194 4.12968 1.78377C4.01059 2.24915 4.01059 2.71453 4.18922 3.17991C4.24877 3.4126 4.24877 3.64529 4.07013 3.76163C3.59378 4.28518 3.3556 4.92508 3.3556 5.56498C3.3556 8.29908 4.9633 8.88081 6.69008 9.05532C6.92826 9.05532 7.10689 9.22984 7.16643 9.46253C7.22598 9.69522 7.16643 9.92791 7.04735 10.0443C6.74962 10.3351 6.63054 10.6842 6.63054 11.0914V11.6149V11.6731V13.3601C6.63054 13.7091 6.39236 13.9418 6.03509 13.9418C5.67783 13.9418 5.43965 13.7091 5.43965 13.3601V12.3712C3.65332 12.662 2.87925 11.6731 2.34335 11.0332C2.10517 10.7423 1.92654 10.5096 1.68836 10.4515C1.39064 10.3933 1.15246 10.0443 1.27155 9.75339C1.3311 9.46253 1.68836 9.22984 1.98608 9.34619C2.58153 9.5207 2.93879 9.92791 3.29606 10.3351C3.77241 10.975 4.18922 11.4404 5.43965 11.2077V11.1495C5.43965 10.8005 5.49919 10.3933 5.61828 10.1024C3.95104 9.75339 2.16472 8.70629 2.16472 5.62315C2.16472 4.75056 2.46244 3.93615 2.99834 3.29625C2.76016 2.48184 2.8197 1.7256 3.17697 0.969355C3.23651 0.794838 3.3556 0.678493 3.53423 0.620321C3.77241 0.562148 4.54649 0.445803 6.15418 1.43473C7.46415 1.14387 8.83367 1.14387 10.0841 1.43473C11.6323 0.445803 12.4659 0.562148 12.704 0.620321C12.8827 0.678493 13.0018 0.794838 13.0613 0.969355C13.359 1.7256 13.4186 2.48184 13.2399 3.23808C13.7758 3.87798 14.0736 4.69239 14.0736 5.56498C14.0736 8.88081 12.0491 9.81157 10.62 10.1024Z" fill="black"/>
<mask id="mask0_6_316" style="mask-type:luminance" maskUnits="userSpaceOnUse" x="1" y="0" width="14" height="14">
<path d="M10.62 10.1024C10.7391 10.4515 10.7986 10.8587 10.7986 11.2077V13.4183C10.7986 13.7673 10.5605 14 10.2032 14C9.84593 14 9.60775 13.7673 9.60775 13.4183V11.1495C9.66729 10.6842 9.48866 10.3351 9.19094 10.0443C9.01231 9.86974 8.95276 9.63705 9.07185 9.46253C9.13139 9.22984 9.36957 9.1135 9.5482 9.05532C11.275 8.88081 12.8827 8.29908 12.8827 5.56498C12.8827 4.92508 12.6445 4.28518 12.1682 3.76163C11.9895 3.58711 11.9895 3.35442 12.0491 3.17991C12.2277 2.71453 12.2277 2.24915 12.1086 1.78377C11.8109 1.84194 11.3345 2.01646 10.5605 2.54001C10.4414 2.65636 10.2627 2.65636 10.0841 2.59818C8.83367 2.24915 7.46415 2.24915 6.21373 2.59818C6.03509 2.65636 5.85646 2.65636 5.67783 2.54001C4.9633 2.01646 4.4274 1.84194 4.12968 1.78377C4.01059 2.24915 4.01059 2.71453 4.18922 3.17991C4.24877 3.4126 4.24877 3.64529 4.07013 3.76163C3.59378 4.28518 3.3556 4.92508 3.3556 5.56498C3.3556 8.29908 4.9633 8.88081 6.69008 9.05532C6.92826 9.05532 7.10689 9.22984 7.16643 9.46253C7.22598 9.69522 7.16643 9.92791 7.04735 10.0443C6.74962 10.3351 6.63054 10.6842 6.63054 11.0914V11.6149V11.6731V13.3601C6.63054 13.7091 6.39236 13.9418 6.03509 13.9418C5.67783 13.9418 5.43965 13.7091 5.43965 13.3601V12.3712C3.65332 12.662 2.87925 11.6731 2.34335 11.0332C2.10517 10.7423 1.92654 10.5096 1.68836 10.4515C1.39064 10.3933 1.15246 10.0443 1.27155 9.75339C1.3311 9.46253 1.68836 9.22984 1.98608 9.34619C2.58153 9.5207 2.93879 9.92791 3.29606 10.3351C3.77241 10.975 4.18922 11.4404 5.43965 11.2077V11.1495C5.43965 10.8005 5.49919 10.3933 5.61828 10.1024C3.95104 9.75339 2.16472 8.70629 2.16472 5.62315C2.16472 4.75056 2.46244 3.93615 2.99834 3.29625C2.76016 2.48184 2.8197 1.7256 3.17697 0.969355C3.23651 0.794838 3.3556 0.678493 3.53423 0.620321C3.77241 0.562148 4.54649 0.445803 6.15418 1.43473C7.46415 1.14387 8.83367 1.14387 10.0841 1.43473C11.6323 0.445803 12.4659 0.562148 12.704 0.620321C12.8827 0.678493 13.0018 0.794838 13.0613 0.969355C13.359 1.7256 13.4186 2.48184 13.2399 3.23808C13.7758 3.87798 14.0736 4.69239 14.0736 5.56498C14.0736 8.88081 12.0491 9.81157 10.62 10.1024Z" fill="white"/>
</mask>
<g mask="url(#mask0_6_316)">
<rect x="0.65625" width="14" height="14" fill="white"/>
</g>
</svg>
