<svg width="20" height="20" viewBox="0 0 20 20" fill="none" xmlns="http://www.w3.org/2000/svg">
<path fill-rule="evenodd" clip-rule="evenodd" d="M8.34164 19.1666C8.84226 19.1666 9.17601 18.8333 9.17601 18.3333C9.17601 17.8333 8.84226 17.5 8.34164 17.5H4.16975C3.66913 17.5 3.33538 17.1666 3.33538 16.6666V3.33331C3.33538 2.83331 3.66913 2.49998 4.16975 2.49998H8.34164C8.84226 2.49998 9.17601 2.16665 9.17601 1.66665C9.17601 1.16665 8.84226 0.833313 8.34164 0.833313H4.16975C2.75131 0.833313 1.66663 1.91665 1.66663 3.33331V16.6666C1.66663 18.0833 2.75131 19.1666 4.16975 19.1666H8.34164ZM18.2707 9.66665C18.3542 9.91665 18.3542 10.1666 18.2707 10.3333C18.2707 10.4166 18.1873 10.5 18.1038 10.5833L14.7663 13.9166C14.5995 14.0833 14.3491 14.1666 14.1823 14.1666C14.0154 14.1666 13.7651 14.0833 13.5982 13.9166C13.2645 13.5833 13.2645 13.0833 13.5982 12.75L15.5173 10.8333H7.50726C7.00663 10.8333 6.67288 10.5 6.67288 9.99998C6.67288 9.49998 7.00663 9.16665 7.50726 9.16665H15.5173L13.5982 7.24998C13.2645 6.91665 13.2645 6.41665 13.5982 6.08331C13.932 5.74998 14.4326 5.74998 14.7663 6.08331L18.1038 9.41665C18.1456 9.45831 18.1664 9.49998 18.1873 9.54165C18.2081 9.58331 18.229 9.62498 18.2707 9.66665Z" fill="black"/>
<mask id="mask0_251_2221" style="mask-type:luminance" maskUnits="userSpaceOnUse" x="1" y="0" width="18" height="20">
<path fill-rule="evenodd" clip-rule="evenodd" d="M8.34164 19.1666C8.84226 19.1666 9.17601 18.8333 9.17601 18.3333C9.17601 17.8333 8.84226 17.5 8.34164 17.5H4.16975C3.66913 17.5 3.33538 17.1666 3.33538 16.6666V3.33331C3.33538 2.83331 3.66913 2.49998 4.16975 2.49998H8.34164C8.84226 2.49998 9.17601 2.16665 9.17601 1.66665C9.17601 1.16665 8.84226 0.833313 8.34164 0.833313H4.16975C2.75131 0.833313 1.66663 1.91665 1.66663 3.33331V16.6666C1.66663 18.0833 2.75131 19.1666 4.16975 19.1666H8.34164ZM18.2707 9.66665C18.3542 9.91665 18.3542 10.1666 18.2707 10.3333C18.2707 10.4166 18.1873 10.5 18.1038 10.5833L14.7663 13.9166C14.5995 14.0833 14.3491 14.1666 14.1823 14.1666C14.0154 14.1666 13.7651 14.0833 13.5982 13.9166C13.2645 13.5833 13.2645 13.0833 13.5982 12.75L15.5173 10.8333H7.50726C7.00663 10.8333 6.67288 10.5 6.67288 9.99998C6.67288 9.49998 7.00663 9.16665 7.50726 9.16665H15.5173L13.5982 7.24998C13.2645 6.91665 13.2645 6.41665 13.5982 6.08331C13.932 5.74998 14.4326 5.74998 14.7663 6.08331L18.1038 9.41665C18.1456 9.45831 18.1664 9.49998 18.1873 9.54165C18.2081 9.58331 18.229 9.62498 18.2707 9.66665Z" fill="white"/>
</mask>
<g mask="url(#mask0_251_2221)">
<rect width="20" height="20" fill="#6E6B7B"/>
</g>
</svg>
