<svg width="15" height="14" viewBox="0 0 15 14" fill="none" xmlns="http://www.w3.org/2000/svg">
<path fill-rule="evenodd" clip-rule="evenodd" d="M12.3236 1.75H2.99023C1.99857 1.75 1.24023 2.50833 1.24023 3.5V10.5C1.24023 11.4917 1.99857 12.25 2.99023 12.25H12.3236C13.3152 12.25 14.0736 11.4917 14.0736 10.5V3.5C14.0736 2.50833 13.3152 1.75 12.3236 1.75ZM2.99023 2.91667H12.3236C12.5569 2.91667 12.7319 3.03333 12.8486 3.26667L7.6569 6.88333L2.46523 3.26667C2.5819 3.03333 2.7569 2.91667 2.99023 2.91667ZM2.4069 10.5C2.4069 10.85 2.64023 11.0833 2.99023 11.0833H12.3236C12.6736 11.0833 12.9069 10.85 12.9069 10.5V4.60833L8.0069 8.05C7.89023 8.10833 7.77357 8.16667 7.6569 8.16667C7.54023 8.16667 7.42357 8.10833 7.3069 8.05L2.4069 4.60833V10.5Z" fill="black"/>
<mask id="mask0_6_319" style="mask-type:luminance" maskUnits="userSpaceOnUse" x="1" y="1" width="14" height="12">
<path fill-rule="evenodd" clip-rule="evenodd" d="M12.3236 1.75H2.99023C1.99857 1.75 1.24023 2.50833 1.24023 3.5V10.5C1.24023 11.4917 1.99857 12.25 2.99023 12.25H12.3236C13.3152 12.25 14.0736 11.4917 14.0736 10.5V3.5C14.0736 2.50833 13.3152 1.75 12.3236 1.75ZM2.99023 2.91667H12.3236C12.5569 2.91667 12.7319 3.03333 12.8486 3.26667L7.6569 6.88333L2.46523 3.26667C2.5819 3.03333 2.7569 2.91667 2.99023 2.91667ZM2.4069 10.5C2.4069 10.85 2.64023 11.0833 2.99023 11.0833H12.3236C12.6736 11.0833 12.9069 10.85 12.9069 10.5V4.60833L8.0069 8.05C7.89023 8.10833 7.77357 8.16667 7.6569 8.16667C7.54023 8.16667 7.42357 8.10833 7.3069 8.05L2.4069 4.60833V10.5Z" fill="white"/>
</mask>
<g mask="url(#mask0_6_319)">
<rect x="0.65625" width="14" height="14" fill="white"/>
</g>
</svg>
